<?xml version="1.0" standalone="no"?>
<!DOCTYPE svg PUBLIC "-//W3C//DTD SVG 20010904//EN"
 "http://www.w3.org/TR/2001/REC-SVG-20010904/DTD/svg10.dtd">
<svg version="1.0" xmlns="http://www.w3.org/2000/svg"
 width="800.000000pt" height="800.000000pt" viewBox="0 0 800.000000 800.000000"
 preserveAspectRatio="xMidYMid meet">
<metadata>
Created by potrace 1.16, written by Peter Selinger 2001-2019
</metadata>
<g transform="translate(0.000000,800.000000) scale(0.100000,-0.100000)"
fill="#000000" stroke="none">
<path d="M3515 7324 c-714 -65 -1356 -245 -1915 -537 -814 -426 -1367 -1053
-1545 -1752 -50 -196 -58 -281 -53 -536 5 -190 9 -243 32 -352 71 -345 240
-694 482 -997 93 -116 328 -350 447 -444 54 -43 115 -100 137 -127 77 -98 118
-225 107 -337 -3 -31 -69 -342 -146 -689 -78 -348 -141 -650 -141 -671 0 -157
159 -264 310 -208 19 7 206 127 415 268 1274 855 1209 814 1339 839 62 12 182
11 266 -1 165 -24 406 -41 640 -47 843 -19 1672 152 2378 492 882 426 1483
1076 1672 1810 94 365 78 769 -46 1144 -301 917 -1262 1676 -2524 1995 -309
79 -576 123 -900 151 -219 19 -744 18 -955 -1z"/>
</g>
</svg>
