<?xml version="1.0" standalone="no"?>
<!DOCTYPE svg PUBLIC "-//W3C//DTD SVG 20010904//EN"
 "http://www.w3.org/TR/2001/REC-SVG-20010904/DTD/svg10.dtd">
<svg version="1.0" xmlns="http://www.w3.org/2000/svg"
 width="512.000000pt" height="512.000000pt" viewBox="0 0 512.000000 512.000000"
 preserveAspectRatio="xMidYMid meet">
<metadata>
Created by potrace 1.16, written by Peter Selinger 2001-2019
</metadata>
<g transform="translate(0.000000,512.000000) scale(0.100000,-0.100000)"
fill="#000000" stroke="none">
<path d="M2240 5105 c-389 -48 -766 -188 -1091 -404 -504 -335 -871 -825
-1043 -1395 -41 -132 -81 -333 -96 -468 -13 -125 -13 -431 0 -556 108 -1014
825 -1880 1804 -2176 132 -41 333 -81 468 -96 125 -13 431 -13 556 0 592 63
1141 332 1563 766 289 299 494 645 613 1038 74 243 106 468 106 746 0 209 -10
324 -46 505 -181 920 -867 1676 -1768 1949 -132 41 -333 81 -468 96 -131 14
-469 11 -598 -5z m1531 -1542 c9 -10 15 -51 17 -120 2 -56 7 -103 11 -103 4 0
27 21 51 46 61 62 74 68 109 50 43 -23 251 -246 251 -270 0 -13 -75 -96 -210
-231 l-209 -210 -3 -538 c-3 -520 -4 -539 -22 -553 -17 -12 -198 -14 -1212
-14 -1298 0 -1215 -4 -1229 53 -3 12 -4 439 -3 948 3 767 5 929 17 942 12 16
110 17 1216 17 1105 0 1204 -1 1216 -17z"/>
<path d="M3671 3046 l-254 -254 8 -66 7 -66 66 0 67 0 253 253 252 252 -68 68
c-37 37 -70 67 -72 67 -3 0 -119 -114 -259 -254z"/>
<path d="M1580 2510 l0 -630 975 0 975 0 0 329 0 329 -82 7 c-46 3 -90 9 -99
11 -26 7 -37 50 -43 168 l-6 109 115 117 c105 106 115 119 115 153 l0 37 -975
0 -975 0 0 -630z m1672 523 c31 -28 22 -70 -19 -92 -28 -14 -1528 -16 -1567
-1 -47 18 -54 74 -12 102 6 4 364 8 795 8 716 0 786 -1 803 -17z m2 -229 c21
-20 20 -53 -1 -76 -15 -17 -53 -18 -799 -18 -430 0 -790 3 -799 6 -27 11 -38
53 -20 80 l15 24 795 0 c708 0 795 -2 809 -16z m2 -228 c19 -26 18 -55 -3 -78
-15 -17 -53 -18 -802 -18 -432 0 -791 4 -797 8 -38 25 -36 78 4 101 11 7 281
10 800 8 763 -2 784 -3 798 -21z m-8 -222 c28 -19 29 -57 2 -84 -20 -20 -33
-20 -800 -20 l-781 0 -24 25 c-30 29 -31 35 -4 69 l20 26 783 0 c691 0 784 -2
804 -16z m4 -231 c38 -35 15 -87 -45 -98 -18 -3 -373 -5 -790 -3 l-759 3 -19
24 c-21 26 -18 58 9 79 12 9 188 12 801 12 716 0 786 -1 803 -17z"/>
</g>
</svg>
